<?xml version="1.0" encoding="UTF-8"?>
<svg id="Layer_2" data-name="Layer 2" xmlns="http://www.w3.org/2000/svg" viewBox="0 0 832.88 537.26">
  <defs>
    <style>
      .cls-1 {
        fill: #fff;
      }
    </style>
  </defs>
  <g id="Layer_1-2" data-name="Layer 1">
    <g>
      <g>
        <path class="cls-1" d="M551.67,349.31c-.04,9.35-1.39,18.54-5.13,27.25-7.33,17.07-21.23,24.92-38.78,27.27-6.56.88-13.25,1.06-19.88,1.07-96.83.07-193.66.12-290.48-.08-7.33-.02-12.97,1.73-18.51,6.69-14.52,12.99-29.61,25.36-44.41,38.04-4.38,3.75-9.13,6.29-15.09,5.49-8.42-1.14-14.18-7.63-14.37-16.45-.19-8.86-.07-17.73-.08-26.59,0-1.33-.04-2.66.01-3.99.09-2.46-.93-3.65-3.53-3.58-4.21.1-8.42,0-12.63,0-8.86,0-72.07.07-80.93-.03-4.95-.06-5.28-.42-5.36-5.35-.1-5.54-.1-11.08,0-16.62.09-5.24.32-5.49,5.83-5.53,11.3-.07,76.95-.03,88.25-.03,9.75,0,19.5-.04,29.25.01,6.39.03,6.68.27,6.72,6.82.06,9.3-.06,18.61-.09,27.91,0,.63.11,1.26.24,2.61,1.51-1.06,2.72-1.77,3.78-2.66,12.18-10.29,24.43-20.51,36.45-30.99,3.42-2.98,6.88-3.97,11.38-3.96,61.6.15,123.19.11,184.79.11,40.99,0,81.98.02,122.97-.04,3.53,0,7.12-.16,10.56-.84,10.51-2.07,16.5-9.06,17.26-19.82.18-2.61.03-5.24.03-8.93"/>
        <g>
          <path class="cls-1" d="M109.14,275.68c0,5.15-.95,10.24-2.85,15.27-1.9,5.03-4.78,9.57-8.65,13.61-3.86,4.05-8.8,7.27-14.81,9.66-6.01,2.39-13.12,3.59-21.34,3.59h-27.23v44.7H2.26v-128.78h59.24c10.67,0,19.53,1.93,26.58,5.79,7.05,3.86,12.33,8.99,15.82,15.36,3.49,6.38,5.24,13.31,5.24,20.79ZM59.47,290.95c3.8,0,6.96-.58,9.47-1.75,2.51-1.16,4.42-2.91,5.7-5.24,1.29-2.33,1.93-5.09,1.93-8.28,0-4.66-1.41-8.34-4.23-11.04-2.82-2.7-7.11-4.05-12.88-4.05h-25.2v30.35h25.2Z"/>
          <path class="cls-1" d="M181.07,363.8c-9.2,0-17.78-1.59-25.75-4.78-7.97-3.19-14.99-7.69-21.06-13.52-6.07-5.82-10.82-12.75-14.26-20.79-3.44-8.03-5.15-16.89-5.15-26.58s1.72-18.55,5.15-26.58c3.43-8.03,8.19-14.96,14.26-20.79,6.07-5.82,13.09-10.33,21.06-13.52,7.97-3.19,16.56-4.78,25.75-4.78s17.81,1.6,25.85,4.78c8.03,3.19,15.05,7.7,21.06,13.52,6.01,5.83,10.73,12.76,14.16,20.79,3.43,8.03,5.15,16.9,5.15,26.58s-1.72,18.55-5.15,26.58c-3.44,8.03-8.19,14.96-14.26,20.79-6.07,5.83-13.09,10.33-21.06,13.52-7.97,3.19-16.56,4.78-25.75,4.78ZM181.07,336.39c6.74,0,12.63-1.66,17.66-4.97,5.03-3.31,8.95-7.85,11.77-13.61,2.82-5.76,4.23-12.33,4.23-19.68s-1.41-14.07-4.23-19.78c-2.82-5.7-6.75-10.21-11.77-13.52-5.03-3.31-10.92-4.97-17.66-4.97s-12.82,1.66-17.84,4.97c-5.03,3.31-8.92,7.82-11.68,13.52-2.76,5.7-4.14,12.3-4.14,19.78s1.38,13.92,4.14,19.68c2.76,5.77,6.65,10.3,11.68,13.61,5.03,3.31,10.97,4.97,17.84,4.97Z"/>
          <path class="cls-1" d="M289.79,233.73v101.92h56.11v26.86h-88.12v-128.78h32.01Z"/>
          <path class="cls-1" d="M392.44,180.38v24.84l-44.7,18.03v-22.08l44.7-20.79ZM354.73,233.73h32.01v128.78h-32.01v-128.78Z"/>
          <path class="cls-1" d="M397.41,233.73h112.03v26.86h-40.1v101.92h-32.01v-101.92h-39.92v-26.86Z"/>
          <path class="cls-1" d="M519.92,233.73h32.01v112.94c0,8.75-7.09,15.84-15.84,15.84h-16.17v-128.78Z"/>
          <path class="cls-1" d="M562.6,298.12c0-9.57,1.56-18.36,4.69-26.4,3.13-8.03,7.54-14.99,13.25-20.88,5.7-5.89,12.54-10.42,20.51-13.61,7.97-3.19,16.74-4.78,26.31-4.78,14.47,0,26.86,3.59,37.16,10.76,10.3,7.17,17.66,17.02,22.08,29.53l-27.78,6.07c-2.21-4.54-4.85-8.25-7.91-11.13-3.07-2.88-6.56-5-10.49-6.35-3.93-1.35-8.28-2.02-13.06-2.02-6.87,0-12.76,1.72-17.66,5.15-4.91,3.44-8.65,8.07-11.22,13.89-2.58,5.83-3.86,12.42-3.86,19.78s1.29,14.14,3.86,19.96c2.58,5.83,6.32,10.42,11.22,13.8,4.9,3.38,10.79,5.06,17.66,5.06,4.78,0,9.26-.7,13.43-2.12,4.17-1.41,7.91-3.74,11.22-6.99,3.31-3.25,6.13-7.51,8.46-12.78l27.04,5.52c-4.42,13.74-11.84,24.38-22.26,31.92-10.42,7.54-23.06,11.31-37.9,11.31-9.57,0-18.34-1.59-26.31-4.78-7.97-3.19-14.81-7.69-20.51-13.52-5.7-5.82-10.12-12.75-13.25-20.79-3.13-8.03-4.69-16.89-4.69-26.58Z"/>
          <path class="cls-1" d="M685.47,362.51l47.1-128.78h50.59l46.73,128.78h-32.93l-9.2-25.75h-60.16l-9.01,25.75h-33.11ZM760.71,260.59h-6.44l-17.29,49.3h41.02l-17.29-49.3Z"/>
        </g>
        <g>
          <g>
            <path class="cls-1" d="M0,182.13L47.09,53.35h50.59l46.73,128.78h-32.93l-9.2-25.75h-60.16l-9.01,25.75H0ZM75.24,80.21h-6.44l-17.29,49.3h41.02l-17.29-49.3Z"/>
            <path class="cls-1" d="M137.79,117.74c0-9.57,1.56-18.36,4.69-26.4,3.13-8.03,7.54-14.99,13.25-20.88,5.7-5.89,12.54-10.42,20.51-13.61,7.97-3.19,16.74-4.78,26.31-4.78,14.47,0,26.86,3.59,37.16,10.76s17.66,17.02,22.08,29.53l-27.78,6.07c-2.21-4.54-4.85-8.25-7.91-11.13-3.07-2.88-6.56-5-10.49-6.35-3.93-1.35-8.28-2.02-13.06-2.02-6.87,0-12.76,1.72-17.66,5.15-4.91,3.44-8.65,8.07-11.22,13.89-2.57,5.83-3.86,12.42-3.86,19.78s1.29,14.14,3.86,19.96c2.58,5.83,6.32,10.42,11.22,13.8,4.9,3.38,10.79,5.06,17.66,5.06,4.78,0,9.26-.7,13.43-2.12,4.17-1.41,7.91-3.74,11.22-6.99,3.31-3.25,6.13-7.51,8.46-12.78l27.04,5.52c-4.42,13.74-11.84,24.38-22.26,31.92-10.43,7.54-23.06,11.31-37.9,11.31-9.57,0-18.34-1.59-26.31-4.78-7.97-3.19-14.81-7.69-20.51-13.52-5.7-5.82-10.12-12.75-13.25-20.79-3.13-8.03-4.69-16.89-4.69-26.58Z"/>
            <path class="cls-1" d="M266.2,117.74c0-9.57,1.56-18.36,4.69-26.4,3.13-8.03,7.54-14.99,13.25-20.88,5.7-5.89,12.54-10.42,20.51-13.61,7.97-3.19,16.74-4.78,26.31-4.78,14.47,0,26.86,3.59,37.16,10.76,10.3,7.17,17.66,17.02,22.08,29.53l-27.78,6.07c-2.21-4.54-4.85-8.25-7.91-11.13-3.07-2.88-6.56-5-10.49-6.35-3.93-1.35-8.28-2.02-13.06-2.02-6.87,0-12.76,1.72-17.66,5.15-4.91,3.44-8.65,8.07-11.22,13.89-2.57,5.83-3.86,12.42-3.86,19.78s1.29,14.14,3.86,19.96c2.58,5.83,6.32,10.42,11.22,13.8,4.9,3.38,10.79,5.06,17.66,5.06,4.78,0,9.26-.7,13.43-2.12,4.17-1.41,7.91-3.74,11.22-6.99,3.31-3.25,6.13-7.51,8.46-12.78l27.04,5.52c-4.42,13.74-11.84,24.38-22.26,31.92-10.43,7.54-23.06,11.31-37.9,11.31-9.57,0-18.34-1.59-26.31-4.78-7.97-3.19-14.81-7.69-20.51-13.52-5.7-5.82-10.12-12.75-13.25-20.79-3.13-8.03-4.69-16.89-4.69-26.58Z"/>
          </g>
          <path class="cls-1" d="M628.61,53.35v78.55l-48.01-78.55h-65.32c1.34.44,2.68.9,3.99,1.43,8.3,3.3,15.57,7.96,21.78,13.98,6.21,6.02,11.09,13.19,14.65,21.49,3.55,8.31,5.33,17.47,5.33,27.49s-1.78,19.18-5.33,27.49c-3.55,8.31-8.46,15.47-14.74,21.49-6.28,6.02-13.54,10.69-21.78,13.98-1.3.52-2.63.99-3.97,1.43h65.21v-78l48.01,78h32.19V53.35h-32.01Z"/>
          <path class="cls-1" d="M491.34,156c6.74,0,12.63-1.66,17.66-4.97,5.03-3.31,8.95-7.85,11.77-13.61,2.82-5.76,4.23-12.33,4.23-19.68s-1.41-14.07-4.23-19.78c-2.82-5.7-6.75-10.21-11.77-13.52-5.03-3.31-10.92-4.97-17.66-4.97s-12.82,1.66-17.84,4.97c-5.03,3.31-8.92,7.82-11.68,13.52-2.76,5.7-4.14,12.3-4.14,19.78s1.38,13.92,4.14,19.68c2.76,5.77,6.65,10.3,11.68,13.61,5.03,3.31,10.97,4.97,17.84,4.97ZM523.9,0v24.84l-44.7,18.03v-22.08L523.9,0Z"/>
          <path class="cls-1" d="M403.51,52.37h32.01v128.78h-32.01V52.37Z"/>
        </g>
      </g>
      <g>
        <path class="cls-1" d="M32.61,482.87H8.08v14.6h18.4v5.6H8.08v15.26h24.53v5.6H1.41v-46.66h31.19v5.6Z"/>
        <path class="cls-1" d="M45.07,513.4c.31,1.33.84,2.38,1.6,3.13.75.76,1.66,1.3,2.7,1.63,1.04.33,2.14.5,3.3.5,2,0,3.55-.4,4.67-1.2,1.11-.8,1.67-1.8,1.67-3,0-1.02-.34-1.83-1.03-2.43-.69-.6-1.6-1.08-2.73-1.43-1.13-.35-2.34-.69-3.63-1-1.16-.31-2.41-.67-3.77-1.07-1.36-.4-2.62-.94-3.8-1.63-1.18-.69-2.14-1.58-2.9-2.67-.76-1.09-1.13-2.48-1.13-4.17,0-2,.54-3.74,1.63-5.23,1.09-1.49,2.6-2.64,4.53-3.47,1.93-.82,4.12-1.23,6.57-1.23,2.84,0,5.34.61,7.5,1.83,2.16,1.22,3.72,3.06,4.7,5.5l-5.67,1.87c-.31-.84-.82-1.53-1.53-2.07-.71-.53-1.52-.9-2.43-1.1-.91-.2-1.81-.3-2.7-.3-1.69,0-3.09.33-4.2,1-1.11.67-1.67,1.64-1.67,2.93,0,.71.18,1.3.53,1.77.36.47.86.84,1.5,1.13.64.29,1.41.54,2.3.77.89.22,1.84.47,2.87.73,1.33.4,2.69.83,4.07,1.3,1.38.47,2.64,1.06,3.8,1.77,1.16.71,2.09,1.64,2.8,2.8.71,1.16,1.09,2.58,1.13,4.27,0,1.96-.54,3.69-1.63,5.2-1.09,1.51-2.62,2.7-4.6,3.57-1.98.87-4.32,1.3-7.03,1.3-3.29,0-6.09-.73-8.4-2.2s-3.87-3.73-4.67-6.8l5.67-2Z"/>
        <path class="cls-1" d="M75.46,490.6v-9.33h6.33v9.33h8.33v5.6h-8.33v16.4c0,2.04.41,3.49,1.23,4.33.82.84,1.87,1.32,3.13,1.43,1.27.11,2.59.08,3.97-.1v5.4c-1.82.4-3.61.52-5.37.37-1.76-.16-3.33-.66-4.73-1.5-1.4-.84-2.51-2.08-3.33-3.7-.82-1.62-1.23-3.7-1.23-6.23v-16.4h-4.8v-5.6h4.8Z"/>
        <path class="cls-1" d="M97.12,490.6h5.73l.4,4.47c.93-1.15,2.01-2.12,3.23-2.9,1.22-.78,2.55-1.32,4-1.63,1.44-.31,2.94-.29,4.5.07v5.93c-1.47-.35-2.89-.4-4.27-.13-1.38.27-2.61.83-3.7,1.7-1.09.87-1.97,2.01-2.63,3.43-.67,1.42-1,3.13-1,5.13v17.26h-6.27v-33.33Z"/>
        <path class="cls-1" d="M141.65,523.93l-.53-4.87c-1.02,1.69-2.34,2.99-3.97,3.9-1.62.91-3.72,1.37-6.3,1.37-2.4,0-4.44-.39-6.13-1.17-1.69-.78-2.99-1.87-3.9-3.27-.91-1.4-1.37-3.03-1.37-4.9,0-2.8,1.04-5.12,3.13-6.97,2.09-1.84,5.11-2.99,9.06-3.43l9.46-1.07v-2.6c0-1.42-.58-2.63-1.73-3.63-1.16-1-2.82-1.5-5-1.5-2.04,0-3.78.48-5.2,1.43-1.42.96-2.38,2.37-2.87,4.23l-5.6-2c.84-2.93,2.5-5.22,4.97-6.86,2.47-1.64,5.45-2.47,8.96-2.47,4.18,0,7.35,1.04,9.53,3.13,2.18,2.09,3.27,4.84,3.27,8.26v22.4h-5.8ZM141.11,508.67l-9.13,1.13c-1.96.27-3.42.81-4.4,1.63-.98.82-1.47,1.9-1.47,3.23,0,1.24.48,2.28,1.43,3.1.96.82,2.3,1.23,4.03,1.23,2.13,0,3.91-.4,5.33-1.2,1.42-.8,2.48-1.92,3.17-3.37.69-1.44,1.03-3.12,1.03-5.03v-.73Z"/>
        <path class="cls-1" d="M158.58,490.6v-9.33h6.33v9.33h8.33v5.6h-8.33v16.4c0,2.04.41,3.49,1.23,4.33.82.84,1.87,1.32,3.13,1.43,1.27.11,2.59.08,3.97-.1v5.4c-1.82.4-3.61.52-5.37.37-1.76-.16-3.33-.66-4.73-1.5-1.4-.84-2.51-2.08-3.33-3.7-.82-1.62-1.23-3.7-1.23-6.23v-16.4h-4.8v-5.6h4.8Z"/>
        <path class="cls-1" d="M194.7,524.4c-3.2,0-6.03-.74-8.5-2.23-2.47-1.49-4.4-3.54-5.8-6.17-1.4-2.62-2.1-5.62-2.1-9s.69-6.13,2.07-8.66c1.38-2.53,3.28-4.53,5.7-6,2.42-1.47,5.17-2.2,8.23-2.2s5.87.68,8.26,2.03c2.4,1.36,4.27,3.24,5.6,5.67,1.33,2.42,1.98,5.21,1.93,8.36,0,.53-.02,1.08-.07,1.63-.04.56-.11,1.17-.2,1.83h-24.66c.13,1.78.63,3.34,1.5,4.7.87,1.36,1.98,2.41,3.33,3.17,1.35.76,2.9,1.13,4.63,1.13,2.22,0,4.15-.43,5.8-1.3,1.64-.87,2.8-2.03,3.47-3.5l5.47,1.93c-1.33,2.71-3.28,4.82-5.83,6.33-2.56,1.51-5.5,2.27-8.83,2.27ZM203.23,504.27c0-1.6-.4-3.04-1.2-4.33-.8-1.29-1.88-2.3-3.23-3.03-1.36-.73-2.88-1.1-4.57-1.1-1.51,0-2.9.37-4.17,1.1-1.27.73-2.33,1.73-3.2,3-.87,1.27-1.41,2.72-1.63,4.37h18Z"/>
        <path class="cls-1" d="M242.76,490.6h5.73v27.86c0,3.91-.93,7.27-2.8,10.06s-4.54,4.95-8.03,6.47c-3.49,1.51-7.7,2.27-12.63,2.27l-1-5.53c5.95-.13,10.46-1.32,13.53-3.57,3.07-2.24,4.6-5.48,4.6-9.7v-.33l.73.07c-1.07,1.69-2.59,3.14-4.57,4.37-1.98,1.22-4.43,1.83-7.36,1.83s-5.61-.71-7.9-2.13c-2.29-1.42-4.07-3.42-5.33-6-1.27-2.58-1.9-5.58-1.9-9s.63-6.42,1.9-9c1.27-2.58,3.04-4.58,5.33-6,2.29-1.42,4.92-2.13,7.9-2.13,1.82,0,3.45.24,4.9.73,1.44.49,2.7,1.15,3.77,1.97,1.07.82,1.96,1.74,2.67,2.77l.47-5ZM222.56,507.27c0,3.42.9,6.18,2.7,8.27,1.8,2.09,4.21,3.13,7.23,3.13,1.78,0,3.4-.46,4.87-1.37,1.47-.91,2.63-2.22,3.5-3.93.87-1.71,1.3-3.74,1.3-6.1s-.43-4.44-1.3-6.13c-.87-1.69-2.04-2.99-3.53-3.9-1.49-.91-3.1-1.37-4.83-1.37-3.02,0-5.43,1.04-7.23,3.13-1.8,2.09-2.7,4.84-2.7,8.26Z"/>
        <path class="cls-1" d="M262.22,484.74c-1.2,0-2.2-.4-3-1.2s-1.2-1.78-1.2-2.93.4-2.21,1.2-3.03c.8-.82,1.8-1.23,3-1.23s2.14.41,2.97,1.23c.82.82,1.23,1.83,1.23,3.03s-.41,2.13-1.23,2.93c-.82.8-1.81,1.2-2.97,1.2ZM259.02,490.6h6.33v33.33h-6.33v-33.33Z"/>
        <path class="cls-1" d="M296.21,523.93l-.53-4.87c-1.02,1.69-2.34,2.99-3.97,3.9-1.62.91-3.72,1.37-6.3,1.37-2.4,0-4.44-.39-6.13-1.17-1.69-.78-2.99-1.87-3.9-3.27-.91-1.4-1.37-3.03-1.37-4.9,0-2.8,1.04-5.12,3.13-6.97,2.09-1.84,5.11-2.99,9.06-3.43l9.46-1.07v-2.6c0-1.42-.58-2.63-1.73-3.63-1.16-1-2.82-1.5-5-1.5-2.04,0-3.78.48-5.2,1.43-1.42.96-2.38,2.37-2.87,4.23l-5.6-2c.84-2.93,2.5-5.22,4.97-6.86,2.47-1.64,5.45-2.47,8.96-2.47,4.18,0,7.35,1.04,9.53,3.13,2.18,2.09,3.27,4.84,3.27,8.26v22.4h-5.8ZM295.68,508.67l-9.13,1.13c-1.96.27-3.42.81-4.4,1.63-.98.82-1.47,1.9-1.47,3.23,0,1.24.48,2.28,1.43,3.1.96.82,2.3,1.23,4.03,1.23,2.13,0,3.91-.4,5.33-1.2,1.42-.8,2.48-1.92,3.17-3.37.69-1.44,1.03-3.12,1.03-5.03v-.73Z"/>
        <path class="cls-1" d="M358,517.13c-3.8,4.8-7.87,7.6-14.13,7.6-8,0-15-5-15-13.46,0-6.67,4.8-11.06,10.46-13.66-3.07-3.13-5.67-6.4-5.67-10.93,0-7,5.67-10.8,12.2-10.8s11.8,3.53,11.8,10.46c0,5.93-5.27,9.53-10,12l10,10.6,6.33-10.6h6.33l-9.06,14.53,10.8,11.06h-7.67l-6.4-6.8ZM342.8,501c-4,2.2-8.33,5-8.33,10.06s4.27,8.86,9.2,8.86,7.93-3.07,10.93-6.53l-11.8-12.4ZM344.2,494.94c3.53-1.93,7.87-4.07,7.87-8.73,0-3.47-2.73-5.53-6-5.53-3.73,0-6.8,2.47-6.8,6.33,0,2.53,1.67,4.53,3.27,6.2l1.67,1.73Z"/>
        <path class="cls-1" d="M394.32,500.6c0-3.51.6-6.72,1.8-9.63,1.2-2.91,2.87-5.42,5-7.53,2.13-2.11,4.61-3.74,7.43-4.9,2.82-1.15,5.88-1.73,9.16-1.73,4.67,0,8.83,1.09,12.5,3.27,3.67,2.18,6.45,5.31,8.37,9.4l-5.33,1.93c-1.07-2.09-2.42-3.78-4.07-5.07-1.64-1.29-3.44-2.24-5.4-2.87-1.96-.62-3.93-.93-5.93-.93-3.16,0-6.01.73-8.57,2.2-2.56,1.47-4.55,3.56-6,6.27-1.44,2.71-2.17,5.91-2.17,9.6s.72,6.82,2.17,9.53c1.44,2.71,3.44,4.81,6,6.3,2.55,1.49,5.41,2.23,8.57,2.23,2.04,0,4.07-.33,6.06-1,2-.67,3.87-1.74,5.6-3.23,1.73-1.49,3.15-3.43,4.27-5.83l5.33,1.87c-2,4.71-4.87,8.21-8.6,10.5-3.73,2.29-8,3.43-12.8,3.43-3.29,0-6.34-.58-9.16-1.73-2.82-1.15-5.3-2.8-7.43-4.93-2.13-2.13-3.8-4.65-5-7.56-1.2-2.91-1.8-6.1-1.8-9.56Z"/>
        <path class="cls-1" d="M461.97,524.4c-3.16,0-5.99-.7-8.5-2.1-2.51-1.4-4.48-3.38-5.9-5.93-1.42-2.55-2.13-5.57-2.13-9.03s.73-6.55,2.2-9.13c1.47-2.58,3.47-4.57,6-5.97,2.53-1.4,5.38-2.1,8.53-2.1s6.01.7,8.57,2.1c2.55,1.4,4.57,3.38,6.03,5.93,1.47,2.56,2.2,5.57,2.2,9.03s-.75,6.55-2.23,9.13c-1.49,2.58-3.52,4.57-6.1,5.97-2.58,1.4-5.46,2.1-8.67,2.1ZM461.9,518.66c1.78,0,3.44-.41,5-1.23,1.55-.82,2.83-2.08,3.83-3.77,1-1.69,1.5-3.84,1.5-6.47s-.48-4.7-1.43-6.37c-.96-1.67-2.21-2.91-3.77-3.73-1.56-.82-3.22-1.23-5-1.23s-3.34.41-4.83,1.23c-1.49.82-2.7,2.08-3.63,3.77-.93,1.69-1.4,3.84-1.4,6.47s.46,4.7,1.37,6.37c.91,1.67,2.1,2.91,3.57,3.73,1.47.82,3.07,1.23,4.8,1.23Z"/>
        <path class="cls-1" d="M486.63,490.6h5.73l.4,3.87c1.07-1.33,2.4-2.39,4-3.17,1.6-.78,3.4-1.17,5.4-1.17,2.27,0,4.32.5,6.17,1.5,1.84,1,3.3,2.48,4.37,4.43,1.11-1.96,2.69-3.43,4.73-4.43,2.04-1,4.29-1.5,6.73-1.5s4.77.54,6.7,1.63c1.93,1.09,3.43,2.7,4.5,4.83s1.6,4.8,1.6,8v19.33h-6.33v-18.53c0-3.11-.67-5.48-2-7.1-1.33-1.62-3.24-2.43-5.73-2.43s-4.53.84-6,2.53c-1.47,1.69-2.2,4.16-2.2,7.4v18.13h-6.33v-18.53c0-3.11-.62-5.48-1.87-7.1-1.25-1.62-3.11-2.43-5.6-2.43s-4.5.84-5.9,2.53c-1.4,1.69-2.1,4.16-2.1,7.4v18.13h-6.27v-33.33Z"/>
        <path class="cls-1" d="M573.81,523.93h-5.73l-.47-3.93c-1.07,1.42-2.41,2.51-4.03,3.27-1.62.75-3.43,1.13-5.43,1.13-2.58,0-4.82-.54-6.73-1.63-1.91-1.09-3.39-2.69-4.43-4.8-1.04-2.11-1.57-4.74-1.57-7.9v-19.46h6.33v18.66c0,3.07.63,5.4,1.9,7,1.27,1.6,3.19,2.4,5.77,2.4s4.52-.82,5.97-2.47c1.44-1.64,2.17-4.09,2.17-7.33v-18.26h6.26v33.33Z"/>
        <path class="cls-1" d="M583.34,490.6h5.73l.4,3.87c1.07-1.38,2.42-2.44,4.07-3.2,1.64-.76,3.47-1.13,5.47-1.13,2.58,0,4.81.54,6.7,1.63,1.89,1.09,3.35,2.7,4.4,4.83,1.04,2.13,1.57,4.8,1.57,8v19.33h-6.27v-18.53c0-3.11-.66-5.48-1.97-7.1-1.31-1.62-3.21-2.43-5.7-2.43s-4.58.83-6,2.5c-1.42,1.67-2.13,4.12-2.13,7.37v18.2h-6.27v-33.33Z"/>
        <path class="cls-1" d="M624.93,484.74c-1.2,0-2.2-.4-3-1.2s-1.2-1.78-1.2-2.93.4-2.21,1.2-3.03c.8-.82,1.8-1.23,3-1.23s2.14.41,2.97,1.23c.82.82,1.23,1.83,1.23,3.03s-.41,2.13-1.23,2.93-1.81,1.2-2.97,1.2ZM621.73,490.6h6.33v33.33h-6.33v-33.33Z"/>
        <path class="cls-1" d="M652.86,524.4c-3.2,0-6.02-.72-8.46-2.17-2.44-1.44-4.34-3.43-5.7-5.97-1.36-2.53-2.03-5.49-2.03-8.86s.69-6.42,2.07-9c1.38-2.58,3.29-4.6,5.73-6.06,2.44-1.47,5.29-2.2,8.53-2.2,3.42,0,6.43.8,9.03,2.4s4.48,3.76,5.63,6.47l-5.67,2c-.67-1.55-1.79-2.8-3.37-3.73-1.58-.93-3.37-1.4-5.37-1.4s-3.8.48-5.27,1.43c-1.47.96-2.6,2.29-3.4,4-.8,1.71-1.2,3.72-1.2,6.03,0,3.47.89,6.22,2.67,8.26,1.78,2.04,4.18,3.07,7.2,3.07,2,0,3.79-.44,5.37-1.33,1.58-.89,2.77-2.11,3.57-3.67l5.6,2c-1.25,2.67-3.2,4.79-5.87,6.37-2.67,1.58-5.69,2.37-9.06,2.37Z"/>
        <path class="cls-1" d="M695.78,523.93l-.53-4.87c-1.02,1.69-2.34,2.99-3.97,3.9-1.62.91-3.72,1.37-6.3,1.37-2.4,0-4.44-.39-6.13-1.17-1.69-.78-2.99-1.87-3.9-3.27-.91-1.4-1.37-3.03-1.37-4.9,0-2.8,1.04-5.12,3.13-6.97,2.09-1.84,5.11-2.99,9.06-3.43l9.46-1.07v-2.6c0-1.42-.58-2.63-1.73-3.63-1.16-1-2.82-1.5-5-1.5-2.04,0-3.78.48-5.2,1.43-1.42.96-2.38,2.37-2.87,4.23l-5.6-2c.84-2.93,2.5-5.22,4.96-6.86,2.47-1.64,5.45-2.47,8.96-2.47,4.18,0,7.35,1.04,9.53,3.13,2.18,2.09,3.27,4.84,3.27,8.26v22.4h-5.8ZM695.25,508.67l-9.13,1.13c-1.96.27-3.42.81-4.4,1.63-.98.82-1.47,1.9-1.47,3.23,0,1.24.48,2.28,1.43,3.1.96.82,2.3,1.23,4.03,1.23,2.13,0,3.91-.4,5.33-1.2,1.42-.8,2.48-1.92,3.17-3.37.69-1.44,1.03-3.12,1.03-5.03v-.73Z"/>
        <path class="cls-1" d="M724.84,524.4c-3.2,0-6.02-.72-8.46-2.17-2.44-1.44-4.34-3.43-5.7-5.97s-2.03-5.49-2.03-8.86.69-6.42,2.07-9c1.38-2.58,3.29-4.6,5.73-6.06,2.44-1.47,5.29-2.2,8.53-2.2,3.42,0,6.43.8,9.03,2.4s4.48,3.76,5.63,6.47l-5.67,2c-.67-1.55-1.79-2.8-3.37-3.73s-3.37-1.4-5.37-1.4-3.8.48-5.27,1.43c-1.47.96-2.6,2.29-3.4,4-.8,1.71-1.2,3.72-1.2,6.03,0,3.47.89,6.22,2.67,8.26,1.78,2.04,4.18,3.07,7.2,3.07,2,0,3.79-.44,5.37-1.33,1.58-.89,2.77-2.11,3.57-3.67l5.6,2c-1.24,2.67-3.2,4.79-5.87,6.37-2.67,1.58-5.69,2.37-9.06,2.37Z"/>
        <path class="cls-1" d="M751.64,484.74c-1.2,0-2.2-.4-3-1.2s-1.2-1.78-1.2-2.93.4-2.21,1.2-3.03c.8-.82,1.8-1.23,3-1.23s2.14.41,2.97,1.23c.82.82,1.23,1.83,1.23,3.03s-.41,2.13-1.23,2.93-1.81,1.2-2.97,1.2ZM748.44,490.6h6.33v33.33h-6.33v-33.33Z"/>
        <path class="cls-1" d="M779.9,524.4c-3.16,0-5.99-.7-8.5-2.1-2.51-1.4-4.48-3.38-5.9-5.93-1.42-2.55-2.13-5.57-2.13-9.03s.73-6.55,2.2-9.13c1.47-2.58,3.47-4.57,6-5.97,2.53-1.4,5.38-2.1,8.53-2.1s6.01.7,8.57,2.1c2.55,1.4,4.57,3.38,6.03,5.93,1.47,2.56,2.2,5.57,2.2,9.03s-.75,6.55-2.23,9.13c-1.49,2.58-3.52,4.57-6.1,5.97-2.58,1.4-5.46,2.1-8.67,2.1ZM779.83,518.66c1.78,0,3.44-.41,5-1.23,1.55-.82,2.83-2.08,3.83-3.77,1-1.69,1.5-3.84,1.5-6.47s-.48-4.7-1.43-6.37c-.96-1.67-2.21-2.91-3.77-3.73-1.56-.82-3.22-1.23-5-1.23s-3.34.41-4.83,1.23c-1.49.82-2.7,2.08-3.63,3.77-.93,1.69-1.4,3.84-1.4,6.47s.46,4.7,1.37,6.37c.91,1.67,2.1,2.91,3.57,3.73,1.47.82,3.07,1.23,4.8,1.23ZM786.23,475.87v5.07l-12.86,6.6v-4.33l12.86-7.33Z"/>
        <path class="cls-1" d="M804.56,490.6h5.73l.4,3.87c1.07-1.38,2.42-2.44,4.07-3.2,1.64-.76,3.47-1.13,5.46-1.13,2.58,0,4.81.54,6.7,1.63,1.89,1.09,3.35,2.7,4.4,4.83s1.57,4.8,1.57,8v19.33h-6.26v-18.53c0-3.11-.66-5.48-1.97-7.1-1.31-1.62-3.21-2.43-5.7-2.43s-4.58.83-6,2.5c-1.42,1.67-2.13,4.12-2.13,7.37v18.2h-6.27v-33.33Z"/>
      </g>
    </g>
  </g>
</svg>