<?xml version="1.0" encoding="UTF-8"?>
<svg id="Layer_2" data-name="Layer 2" xmlns="http://www.w3.org/2000/svg" viewBox="0 0 1293.13 329.73">
  <defs>
    <style>
      .cls-1 {
        fill: #94cfff;
      }

      .cls-2 {
        fill: #fff;
      }
    </style>
  </defs>
  <g id="Layer_1-2" data-name="Layer 1">
    <g>
      <g>
        <g>
          <path class="cls-1" d="M704.11,47.11c0,2.48-.46,4.93-1.37,7.35-.92,2.42-2.3,4.6-4.16,6.55-1.86,1.95-4.23,3.5-7.12,4.65-2.89,1.15-6.31,1.73-10.27,1.73h-13.1v21.51h-15.4V26.92h28.5c5.13,0,9.4.93,12.79,2.79,3.39,1.86,5.93,4.32,7.61,7.39,1.68,3.07,2.52,6.4,2.52,10ZM680.21,54.45c1.83,0,3.35-.28,4.56-.84,1.21-.56,2.12-1.4,2.74-2.52.62-1.12.93-2.45.93-3.98,0-2.24-.68-4.01-2.04-5.31-1.36-1.3-3.42-1.95-6.2-1.95h-12.12v14.61h12.12Z"/>
          <path class="cls-1" d="M738.71,89.51c-4.43,0-8.56-.77-12.39-2.3-3.84-1.53-7.21-3.7-10.13-6.51-2.92-2.8-5.21-6.14-6.86-10-1.65-3.87-2.48-8.13-2.48-12.79s.83-8.93,2.48-12.79c1.65-3.87,3.94-7.2,6.86-10,2.92-2.8,6.3-4.97,10.13-6.51,3.83-1.53,7.97-2.3,12.39-2.3s8.57.77,12.43,2.3c3.86,1.54,7.24,3.7,10.13,6.51,2.89,2.8,5.16,6.14,6.81,10,1.65,3.87,2.48,8.13,2.48,12.79s-.83,8.93-2.48,12.79c-1.65,3.87-3.94,7.2-6.86,10-2.92,2.8-6.3,4.97-10.13,6.51-3.84,1.54-7.97,2.3-12.39,2.3ZM738.71,76.32c3.24,0,6.08-.8,8.5-2.39,2.42-1.59,4.31-3.78,5.66-6.55,1.36-2.77,2.04-5.93,2.04-9.47s-.68-6.77-2.04-9.52c-1.36-2.74-3.25-4.91-5.66-6.51-2.42-1.59-5.25-2.39-8.5-2.39s-6.17.8-8.58,2.39c-2.42,1.59-4.29,3.76-5.62,6.51-1.33,2.74-1.99,5.92-1.99,9.52s.66,6.7,1.99,9.47c1.33,2.77,3.2,4.96,5.62,6.55,2.42,1.59,5.28,2.39,8.58,2.39Z"/>
          <path class="cls-1" d="M791.01,26.92v49.05h26.99v12.93h-42.39V26.92h15.4Z"/>
          <path class="cls-1" d="M840.4,1.25v11.95l-21.51,8.68v-10.62l21.51-10ZM822.25,26.92h15.4v61.97h-15.4V26.92Z"/>
          <path class="cls-1" d="M842.79,26.92h53.9v12.93h-19.29v49.05h-15.4v-49.05h-19.2v-12.93Z"/>
          <path class="cls-1" d="M901.73,26.92h15.4v54.35c0,4.21-3.41,7.62-7.62,7.62h-7.78V26.92Z"/>
          <path class="cls-1" d="M922.26,57.91c0-4.6.75-8.84,2.26-12.7,1.5-3.87,3.63-7.22,6.37-10.05,2.74-2.83,6.03-5.02,9.87-6.55,3.83-1.53,8.05-2.3,12.66-2.3,6.96,0,12.92,1.73,17.88,5.18,4.96,3.45,8.5,8.19,10.62,14.21l-13.36,2.92c-1.06-2.18-2.33-3.97-3.81-5.36-1.48-1.39-3.16-2.4-5.04-3.05-1.89-.65-3.98-.97-6.28-.97-3.31,0-6.14.83-8.5,2.48-2.36,1.65-4.16,3.88-5.4,6.68-1.24,2.8-1.86,5.98-1.86,9.52s.62,6.8,1.86,9.61c1.24,2.8,3.04,5.02,5.4,6.64,2.36,1.62,5.19,2.44,8.5,2.44,2.3,0,4.45-.34,6.46-1.02,2.01-.68,3.81-1.8,5.4-3.36,1.59-1.56,2.95-3.61,4.07-6.15l13.01,2.66c-2.12,6.61-5.69,11.73-10.71,15.36-5.02,3.63-11.09,5.44-18.23,5.44-4.6,0-8.82-.77-12.66-2.3-3.84-1.53-7.12-3.7-9.87-6.51-2.74-2.8-4.87-6.14-6.37-10-1.5-3.87-2.26-8.13-2.26-12.79Z"/>
          <path class="cls-1" d="M981.37,88.89l22.66-61.97h24.34l22.48,61.97h-15.84l-4.43-12.39h-28.94l-4.34,12.39h-15.93ZM1017.57,39.85h-3.1l-8.32,23.73h19.74l-8.32-23.73Z"/>
        </g>
        <g>
          <g>
            <path class="cls-1" d="M318.05,88.38l22.8-62.35h24.5l22.62,62.35h-15.94l-4.45-12.47h-29.13l-4.36,12.47h-16.03ZM354.48,39.03h-3.12l-8.37,23.87h19.86l-8.37-23.87Z"/>
            <path class="cls-1" d="M384.76,57.2c0-4.63.76-8.89,2.27-12.78,1.51-3.89,3.65-7.26,6.41-10.11,2.76-2.85,6.07-5.05,9.93-6.59,3.86-1.54,8.11-2.32,12.74-2.32,7.01,0,13,1.74,17.99,5.21,4.99,3.47,8.55,8.24,10.69,14.3l-13.45,2.94c-1.07-2.2-2.35-3.99-3.83-5.39-1.48-1.39-3.18-2.42-5.08-3.07-1.9-.65-4.01-.98-6.32-.98-3.33,0-6.18.83-8.55,2.49-2.38,1.66-4.19,3.91-5.43,6.73-1.25,2.82-1.87,6.01-1.87,9.58s.62,6.84,1.87,9.66c1.25,2.82,3.06,5.05,5.43,6.68,2.37,1.63,5.22,2.45,8.55,2.45,2.32,0,4.48-.34,6.5-1.02,2.02-.68,3.83-1.81,5.43-3.39,1.6-1.57,2.97-3.64,4.1-6.19l13.09,2.67c-2.14,6.65-5.73,11.8-10.78,15.45-5.05,3.65-11.17,5.48-18.35,5.48-4.63,0-8.88-.77-12.74-2.32-3.86-1.54-7.17-3.73-9.93-6.55-2.76-2.82-4.9-6.17-6.41-10.06-1.51-3.89-2.27-8.18-2.27-12.87Z"/>
            <path class="cls-1" d="M446.94,57.2c0-4.63.76-8.89,2.27-12.78,1.51-3.89,3.65-7.26,6.41-10.11,2.76-2.85,6.07-5.05,9.93-6.59,3.86-1.54,8.11-2.32,12.74-2.32,7.01,0,13,1.74,17.99,5.21,4.99,3.47,8.55,8.24,10.69,14.3l-13.45,2.94c-1.07-2.2-2.35-3.99-3.83-5.39-1.48-1.39-3.18-2.42-5.08-3.07-1.9-.65-4.01-.98-6.32-.98-3.33,0-6.18.83-8.55,2.49-2.38,1.66-4.19,3.91-5.43,6.73-1.25,2.82-1.87,6.01-1.87,9.58s.62,6.84,1.87,9.66c1.25,2.82,3.06,5.05,5.43,6.68,2.37,1.63,5.22,2.45,8.55,2.45,2.32,0,4.48-.34,6.5-1.02,2.02-.68,3.83-1.81,5.43-3.39,1.6-1.57,2.97-3.64,4.1-6.19l13.09,2.67c-2.14,6.65-5.73,11.8-10.78,15.45-5.05,3.65-11.17,5.48-18.35,5.48-4.63,0-8.88-.77-12.74-2.32-3.86-1.54-7.17-3.73-9.93-6.55-2.76-2.82-4.9-6.17-6.41-10.06-1.51-3.89-2.27-8.18-2.27-12.87Z"/>
          </g>
          <path class="cls-1" d="M622.41,26.03v38.03l-23.25-38.03h-31.63c.65.21,1.3.44,1.93.69,4.02,1.6,7.54,3.85,10.55,6.77,3.01,2.92,5.37,6.39,7.09,10.41,1.72,4.02,2.58,8.46,2.58,13.31s-.86,9.29-2.58,13.31c-1.72,4.02-4.1,7.49-7.14,10.41-3.04,2.92-6.55,5.17-10.55,6.77-.63.25-1.27.48-1.92.69h31.57v-37.77l23.25,37.77h15.59V26.03h-15.5Z"/>
          <path class="cls-1" d="M555.95,75.73c3.27,0,6.12-.8,8.55-2.4,2.43-1.6,4.33-3.8,5.7-6.59,1.37-2.79,2.05-5.97,2.05-9.53s-.68-6.81-2.05-9.58c-1.37-2.76-3.27-4.94-5.7-6.55-2.44-1.6-5.29-2.4-8.55-2.4s-6.21.8-8.64,2.4c-2.44,1.6-4.32,3.79-5.66,6.55-1.34,2.76-2,5.95-2,9.58s.67,6.74,2,9.53c1.34,2.79,3.22,4.99,5.66,6.59,2.43,1.6,5.31,2.4,8.64,2.4ZM571.71.2v12.02l-21.64,8.73v-10.69L571.71.2Z"/>
          <path class="cls-1" d="M513.42,25.56h15.5v62.35h-15.5V25.56Z"/>
        </g>
      </g>
      <g>
        <path class="cls-2" d="M317.71,117.55h55.91c37.21,0,52.35,19.63,52.35,45.62,0,17.76-6.92,33.47-24.12,41.13l25.43,44.13h-34.97l-21.88-39.64h-17.39v39.64h-35.34V117.55ZM389.32,163.17c0-8.41-4.67-14.96-16.83-14.96h-19.45v29.92h19.45c12.15,0,16.83-6.54,16.83-14.96Z"/>
        <path class="cls-2" d="M440.92,117.55h92.93v30.66h-57.59v20.76h51.98v27.49h-51.98v21.32h59.46v30.66h-94.8V117.55Z"/>
        <path class="cls-2" d="M546.55,202.81h36.83c.56,9.91,5.61,18.32,20.57,18.32,10.84,0,18.32-4.11,18.32-12.34,0-5.8-3.74-8.79-13.84-10.85l-18.89-3.74c-19.44-3.74-39.45-12.15-39.45-38.14,0-27.49,22.81-40.2,53.48-40.2s53.1,13.46,53.1,43.38h-36.83c.75-11.22-8.41-14.21-17.2-14.21-11.78,0-15.33,5.98-15.33,11.03,0,3.36,1.87,8.04,10.47,9.91l16.83,3.37c34.97,6.92,45.25,20.19,45.25,39.26,0,30.48-26.36,41.7-56.09,41.7-34.4,0-57.22-15.52-57.22-47.49Z"/>
        <path class="cls-2" d="M675.38,117.55h92.93v30.66h-57.59v20.76h51.98v27.49h-51.98v21.32h59.46v30.66h-94.8V117.55Z"/>
        <path class="cls-2" d="M823.08,117.55h46l45.81,130.89h-37.21l-6.36-19.63h-50.48l-6.36,19.63h-37.21l45.81-130.89ZM863.1,202.81l-16.08-49.74h-1.87l-16.08,49.74h34.03Z"/>
        <path class="cls-2" d="M926.66,117.55h55.91c37.21,0,52.35,19.63,52.35,45.62,0,17.76-6.92,33.47-24.12,41.13l25.43,44.13h-34.97l-21.88-39.64h-17.39v39.64h-35.34V117.55ZM998.27,163.17c0-8.41-4.67-14.96-16.83-14.96h-19.45v29.92h19.45c12.15,0,16.83-6.54,16.83-14.96Z"/>
        <path class="cls-2" d="M1047.07,182.99c0-41.13,23.56-67.12,63.39-67.12,29.92,0,54.6,15.15,56.28,51.42h-34.59c-3.18-15.71-12.53-20.94-23-20.94-20.57,0-25.61,18.7-25.61,36.65s4.49,36.83,25.61,36.83c10.47,0,19.82-5.23,23-21.13h34.59c-1.68,36.27-26.36,51.61-56.65,51.61-39.45,0-63.01-25.99-63.01-67.31Z"/>
        <path class="cls-2" d="M1257.79,197.02h-40.95v51.42h-35.34V117.55h35.34v50.11h40.95v-50.11h35.34v130.89h-35.34v-51.42Z"/>
      </g>
      <g id="jYzWV0">
        <path class="cls-2" d="M143.77,150.13l-.72-.2,10.93-18.81v-57.55s-39.08.03-39.08.03v26.15s.03,70.24.03,70.24l7.51,12.92,3.52,6.13-11.02-.13-.03,15.54-27.13,10.3v55.55s-20.81,0-20.81,0v-57.07s12.93-4.88,12.93-4.88l14.33-5.52-.02-13.87h-10.83s3.68-6.55,3.68-6.55l6.55-11.25c.39-.67.68-1.21.68-2.09v-61.64s-.1-13.15-.1-13.15l-39.04.05v82.26s-.02,27.76-.02,27.76l-10.78,4.13-16.33,6.24v55.56c-3.13,0-6.05.2-9.14-.14-5.57-.63-10.69-3.47-14.2-7.8C1.44,258.33,0,253.47,0,248.29v-35.01s0-46.61,0-46.61l.02-39.38v-30.08S.07,20.44.07,20.44C.07,8.5,10.05-.02,21.64,0l37.5.05,197.22.02c4.24,0,8.27,1.74,11.58,4.14,5.55,4.05,8.34,10.58,8.34,17.42l-.02,137.13v52.43s0,37.51,0,37.51c0,5.15-1.69,10-4.91,13.9-4.29,5.2-10.55,7.72-17.22,7.72h-9.7c-.19,0-.56.04-.69.06-.11.01-.09.25-.09.46l3.43,21.64,3.97,24.57,1.92,12.26.04.38c0,.08-.16.09-.46-.18l-25.24-22.62-28.98-25.98-11.91-10.7v-56.92s19.59-7.51,19.59-7.51l7.4-2.81c.1-.05.33-.47.33-.65v-21.75s.03-12.68.03-12.68l-.02-32.93.02-38.13-.04-43.89h-38.99s0,77.86,0,77.86l5.77,10.05,5.09,8.8c.04.08.16.38.09.4-.11.02-.44.08-.58.08h-10.35s-.05,25.48-.05,25.48l.02,28.76-9.19,3.52-18.07,6.87v13.31s.02,41.82.02,41.82c-.07.25-.3.45-.52.45l-20.28-.05-.02-56.09c0-.34,0-.72.05-.88.07-.2.48-.33.79-.44l18.28-6.96,7.49-2.88c.38-.15.7-.18.7-.69v-29.59s0-.46,0-.46v-14.69s.01-7.08.01-7.08l-.34-.4-9.89.06Z"/>
      </g>
    </g>
  </g>
</svg>